<?xml version="1.0" standalone="no"?>
<!DOCTYPE svg PUBLIC "-//W3C//DTD SVG 1.1//EN" "http://www.w3.org/Graphics/SVG/1.1/DTD/svg11.dtd"><svg t="1681354818895"
    class="icon" viewBox="0 0 1024 1024" version="1.1" xmlns="http://www.w3.org/2000/svg" p-id="2339"
    xmlns:xlink="http://www.w3.org/1999/xlink" width="200" height="200">
    <path
        d="M426.666667 896v85.333333a42.666667 42.666667 0 0 1-85.333334 0v-85.333333H256a128 128 0 0 1-128-128v-128H42.666667a42.666667 42.666667 0 0 1 0-85.333333h85.333333v-128H42.666667a42.666667 42.666667 0 1 1 0-85.333334h85.333333V256a128 128 0 0 1 128-128h85.333333V42.666667a42.666667 42.666667 0 1 1 85.333334 0v85.333333h170.666666V42.666667a42.666667 42.666667 0 0 1 85.333334 0v85.333333h85.333333a128 128 0 0 1 128 128v85.333333h85.333333a42.666667 42.666667 0 0 1 0 85.333334h-85.333333v128h85.333333a42.666667 42.666667 0 0 1 0 85.333333h-85.333333v128a128 128 0 0 1-128 128h-85.333333v85.333333a42.666667 42.666667 0 0 1-85.333334 0v-85.333333h-170.666666z m341.333333-682.666667H256a42.666667 42.666667 0 0 0-42.368 37.674667L213.333333 256v512a42.666667 42.666667 0 0 0 37.674667 42.368L256 810.666667h512a42.666667 42.666667 0 0 0 42.368-37.674667L810.666667 768V256a42.666667 42.666667 0 0 0-42.666667-42.666667z m-128 128a42.666667 42.666667 0 0 1 42.666667 42.666667v256a42.666667 42.666667 0 0 1-42.666667 42.666667H384a42.666667 42.666667 0 0 1-42.666667-42.666667V384a42.666667 42.666667 0 0 1 42.666667-42.666667h256z m-42.666667 85.333334h-170.666666v170.666666h170.666666v-170.666666z"
        fill="#1296db" p-id="2340"></path>
</svg>