<?xml version="1.0" standalone="no"?><!DOCTYPE svg PUBLIC "-//W3C//DTD SVG 1.1//EN" "http://www.w3.org/Graphics/SVG/1.1/DTD/svg11.dtd"><svg t="1681387614339" class="icon" viewBox="0 0 1024 1024" version="1.1" xmlns="http://www.w3.org/2000/svg" p-id="6857" xmlns:xlink="http://www.w3.org/1999/xlink" width="200" height="200"><path d="M385.28 170.666667h85.333333v85.333333h-85.333333zM385.28 768h85.333333v85.333333h-85.333333zM555.946667 768h85.333333v85.333333h-85.333333zM170.666667 384h85.333333v85.333333H170.666667zM726.613333 256H768v42.666667h85.333333V170.666667h-126.72v85.333333zM170.666667 554.666667h85.333333v85.333333H170.666667zM256 298.666667V256h43.946667V170.666667H170.666667v128h85.333333zM299.946667 768H256v-42.666667H170.666667v128h129.28v-85.333333zM555.946667 170.666667h85.333333v85.333333h-85.333333zM768 725.333333v42.666667h-41.386667v85.333333H853.333333v-128h-85.333333zM768 554.666667h85.333333v85.333333h-85.333333zM768 384h85.333333v85.333333h-85.333333z" p-id="6858" fill="#1296db"></path></svg>